<?xml version="1.0" encoding="UTF-8" standalone="no"?>
<svg
   xmlns:dc="http://purl.org/dc/elements/1.1/"
   xmlns:cc="http://creativecommons.org/ns#"
   xmlns:rdf="http://www.w3.org/1999/02/22-rdf-syntax-ns#"
   xmlns:svg="http://www.w3.org/2000/svg"
   xmlns="http://www.w3.org/2000/svg"
   xmlns:sodipodi="http://sodipodi.sourceforge.net/DTD/sodipodi-0.dtd"
   xmlns:inkscape="http://www.inkscape.org/namespaces/inkscape"
   sodipodi:docname="empresas.svg"
   inkscape:version="1.0 (4035a4fb49, 2020-05-01)"
   id="svg8"
   version="1.1"
   viewBox="0 0 195.99955 68"
   height="17mm"
   width="49mm">
  <defs
     id="defs2" />
  <sodipodi:namedview
     inkscape:window-maximized="1"
     inkscape:window-y="-8"
     inkscape:window-x="1912"
     inkscape:window-height="1017"
     inkscape:window-width="1920"
     fit-margin-bottom="10"
     fit-margin-right="10"
     fit-margin-left="10"
     fit-margin-top="10"
     showgrid="false"
     inkscape:document-rotation="0"
     inkscape:current-layer="layer1"
     inkscape:document-units="mm"
     inkscape:cy="416.46099"
     inkscape:cx="582.6024"
     inkscape:zoom="0.5"
     inkscape:pageshadow="2"
     inkscape:pageopacity="0.0"
     borderopacity="1.0"
     bordercolor="#666666"
     pagecolor="#ffffff"
     id="base" />
  <metadata
     id="metadata5">
    <rdf:RDF>
      <cc:Work
         rdf:about="">
        <dc:format>image/svg+xml</dc:format>
        <dc:type
           rdf:resource="http://purl.org/dc/dcmitype/StillImage" />
        <dc:title></dc:title>
      </cc:Work>
    </rdf:RDF>
  </metadata>
  <g
     transform="translate(48.313552,-37.978031)"
     id="layer1"
     inkscape:groupmode="layer"
     inkscape:label="Capa 1">
    <g
       style="stroke-width:0.711068"
       transform="matrix(1.4063358,0,0,1.4063358,-91.80724,-77.922297)"
       id="g869">
      <path
         fill="#f25022"
         d="M 38.037635,89.523661 H 54.256593 V 105.74262 H 38.037635 Z"
         id="path837"
         style="stroke-width:0.188136" />
      <path
         fill="#7fba00"
         d="M 55.949926,89.523661 H 72.168885 V 105.74262 H 55.949926 Z"
         id="path839"
         style="stroke-width:0.188136" />
      <path
         fill="#00a4ef"
         d="m 38.037635,107.43595 h 16.218958 v 16.21896 H 38.037635 Z"
         id="path841"
         style="stroke-width:0.188136" />
      <path
         fill="#ffb900"
         d="m 55.949926,107.43595 h 16.218959 v 16.21896 H 55.949926 Z"
         id="path843"
         style="stroke-width:0.188136" />
    </g>
    <path
       style="stroke-width:0.264583"
       d="m 69.671756,85.38461 c -0.725905,1.676985 -1.585135,3.220641 -2.580663,4.639859 -1.356995,1.934752 -2.468072,3.273974 -3.324346,4.017655 -1.327365,1.220703 -2.749545,1.845869 -4.272463,1.881429 -1.093301,0 -2.411778,-0.311109 -3.946545,-0.942199 -1.539805,-0.628131 -2.954876,-0.93923 -4.248761,-0.93923 -1.356994,0 -2.812358,0.311099 -4.369053,0.93923 -1.559065,0.63109 -2.815025,0.959969 -3.775294,0.992559 -1.4604,0.0622 -2.916059,-0.580718 -4.369052,-1.931789 -0.927379,-0.808863 -2.087343,-2.195491 -3.476932,-4.159876 -1.490917,-2.097713 -2.716658,-4.530233 -3.676925,-7.303481 -1.028413,-2.995465 -1.543953,-5.896115 -1.543953,-8.704326 0,-3.216794 0.69509,-5.991224 2.087344,-8.316193 1.094189,-1.867498 2.549849,-3.340638 4.371719,-4.422087 1.821871,-1.081448 3.790405,-1.632543 5.910341,-1.667802 1.159963,0 2.681103,0.358804 4.571414,1.063967 1.884981,0.707536 3.095314,1.06634 3.625966,1.06634 0.396729,0 1.741281,-0.419544 4.020619,-1.255962 2.155491,-0.775681 3.974693,-1.096857 5.46502,-0.970343 4.038396,0.325916 7.07238,1.917869 9.090094,4.785931 -3.611741,2.188378 -5.398353,5.253469 -5.3628,9.185497 0.03258,3.06272 1.143669,5.611385 3.327306,7.635028 0.989602,0.939228 2.094753,1.665132 3.324341,2.180673 -0.266655,0.77331 -0.548124,1.51403 -0.847377,2.22512 z m -9.26194,-36.446301 c 0,2.400547 -0.877014,4.641932 -2.625108,6.716535 -2.109567,2.466297 -4.661194,3.891438 -7.428222,3.666556 -0.03526,-0.287992 -0.0557,-0.591093 -0.0557,-0.909601 0,-2.304524 1.003231,-4.770819 2.784805,-6.787351 0.889453,-1.021005 2.020679,-1.869957 3.392491,-2.547182 1.368848,-0.667121 2.663622,-1.036053 3.881364,-1.099231 0.03556,0.320916 0.05037,0.641852 0.05037,0.960243 z"
       id="path4"
       inkscape:connector-curvature="0" />
    <path
       style="stroke-width:0.264583"
       id="path887"
       d="m 115.26091,76.507648 v -6.557491 h 22.09756 c 0.21602,1.142856 0.32752,2.494773 0.32752,3.958188 0,4.919859 -1.34495,11.003484 -5.67944,15.337978 -4.21603,4.390244 -9.60279,6.731708 -16.73867,6.731708 -13.22648,0 -24.348433,-10.773519 -24.348433,-24 0,-13.226482 11.121953,-24 24.348433,-24 7.31708,0 12.52962,2.871079 16.44599,6.613241 l -4.62718,4.627176 c -2.80835,-2.634146 -6.61324,-4.682926 -11.82577,-4.682926 -9.65854,0 -17.212554,7.783972 -17.212554,17.442509 0,9.658536 7.554014,17.442509 17.212554,17.442509 6.26481,0 9.83275,-2.51568 12.11846,-4.801394 1.85365,-1.853659 3.07317,-4.501743 3.55401,-8.118467 z"
       fill="#4285f4" />
  </g>
</svg>
